HIERARCHY
ROOT Hips
{
	OFFSET	0.000000	0.000000	0.000000
	CHANNELS 6 Xposition Yposition Zposition Zrotation Xrotation Yrotation
	JOINT LeftHip
	{
		OFFSET	4.740440	-3.195970	-0.322709
		CHANNELS 3 Zrotation Xrotation Yrotation
		JOINT LeftKnee
		{
			OFFSET	-1.605680	-15.592300	1.005510
			CHANNELS 3 Zrotation Xrotation Yrotation
			JOINT LeftAnkle
			{
				OFFSET	-0.632401	-16.421000	-1.413730
				CHANNELS 3 Zrotation Xrotation Yrotation
				End Site
				{
					OFFSET	0.008423	-2.933000	-1.684880
				}
			}
		}
	}
	JOINT RightHip
	{
		OFFSET	-4.740440	-3.195970	-0.322709
		CHANNELS 3 Zrotation Xrotation Yrotation
		JOINT RightKnee
		{
			OFFSET	1.605680	-15.592300	1.005510
			CHANNELS 3 Zrotation Xrotation Yrotation
			JOINT RightAnkle
			{
				OFFSET	0.632401	-16.421000	-1.413730
				CHANNELS 3 Zrotation Xrotation Yrotation
				End Site
				{
					OFFSET	-0.008423	-2.933000	-1.684880
				}
			}
		}
	}
	JOINT Chest
	{
		OFFSET	0.000000	3.468200	0.078401
		CHANNELS 3 Zrotation Xrotation Yrotation
		JOINT LeftCollar
		{
			OFFSET	3.857650	15.070700	-0.011583
			CHANNELS 3 Zrotation Xrotation Yrotation
			JOINT LeftShoulder
			{
				OFFSET	3.979720	-1.940530	-0.165223
				CHANNELS 3 Zrotation Xrotation Yrotation
				JOINT LeftElbow
				{
					OFFSET	0.615844	-10.986600	-0.673886
					CHANNELS 3 Zrotation Xrotation Yrotation
					JOINT LeftWrist
					{
						OFFSET	0.826843	-10.854500	1.034220
						CHANNELS 3 Zrotation Xrotation Yrotation
						End Site
						{
							OFFSET	-1.679080	-8.456540	0.936217
						}
					}
				}
			}
		}
		JOINT RightCollar
		{
			OFFSET	-3.857650	15.070700	-0.011583
			CHANNELS 3 Zrotation Xrotation Yrotation
			JOINT RightShoulder
			{
				OFFSET	-3.979720	-1.940530	-0.165223
				CHANNELS 3 Zrotation Xrotation Yrotation
				JOINT RightElbow
				{
					OFFSET	-0.615845	-10.986600	-0.673886
					CHANNELS 3 Zrotation Xrotation Yrotation
					JOINT RightWrist
					{
						OFFSET	-0.826843	-10.854500	1.034220
						CHANNELS 3 Zrotation Xrotation Yrotation
						End Site
						{
							OFFSET	1.679080	-8.456540	0.936217
						}
					}
				}
			}
		}
		JOINT Neck
		{
			OFFSET	0.000000	15.101400	0.055730
			CHANNELS 3 Zrotation Xrotation Yrotation
			JOINT Head
			{
				OFFSET	0.000000	4.185120	1.488260
				CHANNELS 3 Zrotation Xrotation Yrotation
				End Site
				{
					OFFSET	0.000000	7.773420	-0.106016
				}
			}
		}
	}
}
MOTION
Frames:     12
Frame Time: 0.016667
3.940599	37.555740	-5.098779	3.596994	-9.436989	-20.558374	-6.961653	4.206738	3.495023	-2.957436	3.745098	5.311194	5.105536	-1.106394	10.171321	-19.466143	-7.073767	0.210414	3.622099	21.576546	1.511386	10.071557	-6.460589	5.603364	-7.551418	9.349348	1.351107	0.007035	1.193273	-1.164532	1.708258	-1.285700	5.896410	-5.198515	-8.615497	-15.289250	15.921357	2.411936	-19.267012	-0.422067	2.498572	0.750174	-3.132400	-5.041731	-1.021185	-2.355562	-8.897146	19.620214	-18.454428	-1.088861	14.631650	-2.024421	9.121077	-3.227240	4.232605	7.434611	-7.291287	
3.939407	37.555859	-5.099369	3.596994	-9.436989	-20.558374	-6.961653	4.206738	3.495023	-2.957436	3.745098	5.311194	5.105536	-1.106394	10.171321	-19.461330	-7.074339	0.212354	3.617872	21.577053	1.509899	10.071557	-6.460589	5.603364	-7.551418	9.349348	1.351107	0.007035	1.193273	-1.164532	1.708258	-1.285700	5.896410	-5.198008	-8.615517	-15.301543	15.931693	2.401323	-19.256834	-0.422067	2.498572	0.750174	-3.131062	-5.035829	-1.021024	-2.356834	-8.903065	19.619919	-18.438293	-1.087570	14.628098	-2.028050	9.160838	-3.212940	4.379759	7.679581	-7.237339	
3.934570	37.556366	-5.101761	3.596994	-9.436989	-20.558374	-6.961653	4.206738	3.495023	-2.957436	3.745098	5.311194	5.105536	-1.106394	10.171321	-19.441807	-7.076655	0.220242	3.600725	21.579084	1.503856	10.071557	-6.460589	5.603364	-7.551418	9.349348	1.351107	0.007035	1.193273	-1.164532	1.708258	-1.285700	5.896410	-5.206152	-8.631632	-15.316018	15.974993	2.377317	-19.254852	-0.422067	2.498572	0.750174	-3.127222	-5.018934	-1.020564	-2.364850	-8.905043	19.619612	-18.388105	-1.097856	14.610816	-1.901479	9.353683	-3.155256	4.467258	7.919353	-7.276830	
3.932191	37.557018	-5.101374	3.596994	-9.436989	-20.558374	-6.961653	4.206738	3.495023	-2.957436	3.745098	5.311194	5.105536	-1.106394	10.171321	-19.434128	-7.072257	0.224595	3.594326	21.574516	1.500493	10.071557	-6.460589	5.603364	-7.551418	9.349348	1.351107	0.007035	1.193273	-1.164532	1.708258	-1.285700	5.896410	-5.210833	-8.640294	-15.316889	15.996373	2.379332	-19.259401	-0.422067	2.498572	0.750174	-3.127068	-5.018225	-1.020531	-2.368341	-8.894292	19.619972	-18.328848	-1.072055	14.590679	-1.786500	9.509366	-3.077370	4.460282	8.051503	-7.318336	
3.923891	37.559574	-5.098754	3.599718	-9.431658	-20.559011	-6.962324	4.200716	3.495382	-2.956810	3.744045	5.306241	5.105105	-1.104855	10.176119	-19.409872	-7.059924	0.238780	3.573740	21.555607	1.488766	10.071557	-6.460589	5.603364	-7.552110	9.343322	1.351407	0.007035	1.193273	-1.164532	1.708258	-1.285700	5.896410	-5.227597	-8.671316	-15.319995	16.056673	2.376958	-19.274830	-0.422067	2.498572	0.750174	-3.127068	-5.018225	-1.020531	-2.371971	-8.881850	19.620405	-18.280865	-1.037664	14.571409	-1.631486	9.759298	-2.997983	4.582761	8.950229	-7.123094	
3.920620	37.560608	-5.097374	3.603314	-9.424611	-20.559866	-6.963208	4.192757	3.495865	-2.954516	3.740210	5.288324	5.103512	-1.099260	10.193461	-19.401615	-7.060814	0.243184	3.566129	21.548393	1.484380	10.071557	-6.460589	5.603364	-7.556559	9.338787	1.352594	0.010444	1.189762	-1.164736	1.708258	-1.285700	5.896410	-5.234127	-8.683395	-15.321209	16.076015	2.383454	-19.280064	-0.418653	2.495063	0.749943	-3.127068	-5.018225	-1.020531	-2.373946	-8.875076	19.620649	-18.241766	-1.000374	14.607934	-1.545885	9.914407	-2.975874	4.577618	9.289078	-6.989570	
3.907276	37.565796	-5.092916	3.612421	-9.396909	-20.561266	-6.961840	4.163527	3.495202	-2.952916	3.737537	5.275829	5.102403	-1.095360	10.205556	-19.355654	-7.052970	0.264418	3.524196	21.500889	1.463396	10.076030	-6.450594	5.602402	-7.569659	9.323977	1.354735	0.024503	1.175013	-1.165495	1.707498	-1.287879	5.878784	-5.251938	-8.722726	-15.307313	16.127985	2.413332	-19.295870	-0.404572	2.480320	0.749073	-3.127068	-5.018225	-1.020531	-2.380355	-8.853108	19.621420	-18.237013	-0.997075	14.631974	-1.242065	10.528386	-2.884659	4.592188	10.473135	-6.493991	
3.907269	37.566154	-5.093028	3.612429	-9.384758	-20.560320	-6.957412	4.152347	3.492879	-2.951224	3.734702	5.262584	5.101224	-1.091227	10.218373	-19.347942	-7.060181	0.262213	3.518289	21.491920	1.461969	10.078533	-6.445007	5.601861	-7.570864	9.318594	1.353535	0.030157	1.169109	-1.165807	1.709026	-1.293668	5.872709	-5.261553	-8.735360	-15.302423	16.134407	2.431993	-19.301249	-0.398909	2.474418	0.748717	-3.127068	-5.018225	-1.020531	-2.382659	-8.845201	19.621696	-18.239826	-0.982699	14.627489	-1.132598	10.771006	-2.843594	4.592831	10.936089	-6.289357	
3.924367	37.565979	-5.081895	3.609997	-9.345183	-20.556265	-6.940632	4.116939	3.484058	-2.949274	3.731420	5.247223	5.099869	-1.086439	10.233247	-19.403530	-7.080382	0.376044	3.633909	21.453829	1.315499	10.085880	-6.428611	5.600289	-7.579765	9.309538	1.349919	0.048429	1.042914	-1.095820	1.778039	-1.377243	5.837576	-5.366805	-8.646324	-15.341853	16.152309	2.510607	-19.322714	-0.373266	2.447562	0.747138	-3.127068	-5.018225	-1.020531	-2.389459	-8.821878	19.622501	-18.246723	-0.954204	14.614928	-0.750905	11.638122	-2.677696	4.565302	12.529324	-5.691666	
3.926118	37.569534	-5.069002	3.607843	-9.331416	-20.554348	-6.933542	4.105160	3.480333	-2.946896	3.727400	5.228409	5.098217	-1.080578	10.251459	-19.426785	-7.052973	0.485169	3.705772	21.401886	1.137889	10.094225	-6.413277	5.652379	-7.586411	9.311809	1.349015	0.073188	1.001094	-1.063689	1.786214	-1.408134	5.815642	-5.407522	-8.631155	-15.358125	16.153952	2.527801	-19.346321	-0.359649	2.433235	0.746330	-3.127068	-5.018225	-1.020531	-2.391660	-8.814330	19.622759	-18.247259	-0.961462	14.611908	-0.616091	11.963947	-2.620191	4.550873	13.124508	-5.459732	
4.022309	37.563076	-5.005728	3.448665	-9.344958	-20.452032	-6.782527	4.187673	3.360875	-2.940632	3.822029	5.012243	5.087901	-1.154748	10.474722	-19.656372	-6.821224	0.903362	4.201223	21.208311	0.218944	10.193886	-6.322777	5.984472	-7.458564	9.407415	1.262407	0.142616	0.900672	-0.984453	1.806555	-1.491259	5.739020	-5.568340	-8.680419	-15.443434	16.131083	2.542321	-19.371071	-0.325195	2.420923	0.718593	-3.127068	-5.018225	-1.020531	-2.397608	-8.793902	19.623453	-18.211124	-0.950048	14.593154	-0.181778	13.063789	-2.534184	4.438287	14.952700	-4.666623	
4.085452	37.565411	-4.969428	3.344566	-9.362222	-20.464891	-6.692479	4.239865	3.362959	-2.938578	3.944844	4.808023	5.079858	-1.258372	10.688873	-19.752682	-6.708766	1.099454	4.361438	21.093264	-0.296790	10.333817	-6.132502	6.322410	-7.466183	9.428373	1.348259	0.249832	0.906352	-1.024080	1.808931	-1.504997	5.716614	-5.632431	-8.750730	-15.486964	16.117752	2.540185	-19.329165	-0.225604	2.450252	0.651532	-3.127068	-5.018225	-1.020531	-2.399221	-8.788369	19.623627	-18.219873	-0.949350	14.582896	0.046117	13.493982	-2.565379	4.400368	15.529356	-4.375137	
